# xmcd
#
# Track frame offsets:
#	150
#	13770
#	31734
#	47721
#	63572
#	78238
#	92147
#	108335
#	123451
#	138225
#	152318
#	166362
#	183426
#
# Disc length: 2652 seconds
#
# Revision: 0
# Processed by: cddbd v1.5.2PL0 Copyright (c) Steve Scherf et al.
# Submitted via: dBpowerAMP V4.0
#
DISCID=9d0a5a0d
DTITLE=Steff Nevers - Ain't No Bad Life
DYEAR=2010
DGENRE=Country
TTITLE0=300 Horses
TTITLE1=Fightin' The Fool
TTITLE2=Ain't No Bad Life
TTITLE3=Hard On A Heart
TTITLE4=Hillbilly Shoes
TTITLE5=Everyday Thing
TTITLE6=Simple Country Life
TTITLE7=Big Dreams
TTITLE8=Baby's Got Her Boots On
TTITLE9=White Wine
TTITLE10=You Can Count on Me
TTITLE11=Too Long (The Truckers Song)
TTITLE12=Heart Of Stone
EXTD=Norwegian Country singer.
EXTT0=
EXTT1=
EXTT2=
EXTT3=
EXTT4=
EXTT5=
EXTT6=
EXTT7=
EXTT8=
EXTT9=
EXTT10=
EXTT11=
EXTT12=
PLAYORDER=
